Did not see this here in 720p.									

												

												

												

All credit to the original uploader.								

												

												

											

Enjoy and please share.										

												

												

											

TTLTTLTTLTTLTTLTTLTTLTTLTTLTTLTTLTTLTTLTTLTTLTTLTTL						

												

												

												

												

							

Silent_Witness_S15_E06_720p.HDTV.x264.fov_TTL.mkv
Format                           : Matroska
File size                        : 799 MiB
Duration                         : 58mn 59s
Overall bit rate                 : 1 894 Kbps
Movie name                       : silent.witness.15x06.720p.hdtv.x264.fov.mkv 12189
Encoded date                     : UTC 2012-04-20 07:17:58
Writing application              : mkvmerge v2.4.0 ('Fumbling Towards Ecstasy') built on 

Oct 11 2008 20:13:15
Writing library                  : libebml v0.7.7 + libmatroska v0.8.1

Video
ID                               : 1
Format                           : AVC
Format/Info                      : Advanced Video Codec
Format profile                   : High@L4.1
Format settings, CABAC           : Yes
Format settings, ReFrames        : 5 frames
Muxing mode                      : Container profile=Unknown@4.1
Codec ID                         : V_MPEG4/ISO/AVC
Duration                         : 58mn 59s
Bit rate                         : 1 665 Kbps
Width                            : 1 280 pixels
Height                           : 720 pixels
Display aspect ratio             : 16:9
Frame rate                       : 25.000 fps
Resolution                       : 8 bits
Colorimetry                      : 4:2:0
Scan type                        : Progressive
Bits/(Pixel*Frame)               : 0.072
Stream size                      : 702 MiB (88%)
Writing library                  : x264 core 122 r2184 5c85e0a

Language                         : English

Audio
ID                               : 2
Format                           : AC-3
Format/Info                      : Audio Coding 3
Codec ID                         : A_AC3
Duration                         : 58mn 59s
Bit rate mode                    : Constant
Bit rate                         : 192 Kbps
Channel(s)                       : 2 channels
Channel positions                : L R
Sampling rate                    : 48.0 KHz
Stream size                      : 81.0 MiB (10%)



